<mxfile host="app.diagrams.net" modified="2024-07-23T03:03:39.951Z" agent="Mozilla/5.0 (Macintosh; Intel Mac OS X 10_15_7) AppleWebKit/537.36 (KHTML, like Gecko) Chrome/126.0.0.0 Safari/537.36" version="24.7.1" etag="d5dKDo2N2IDKBrobpiMX" type="github">
  <diagram name="第 1 页" id="ZlWIicrtzE8GgHzeFLJv">
    <mxGraphModel>
      <root>
        <mxCell id="0" />
        <mxCell id="1" parent="0" />
      </root>
    </mxGraphModel>
  </diagram>
</mxfile>
